<svg xmlns="http://www.w3.org/2000/svg" style="display: none;">
    <symbol id="icon-tomato" viewBox="0 0 40 40">
        <g clip-path="url(#clip0)">
            <path d="M38.9151 23.2834C38.9151 33.7058 30.466 40 20.0437 40C9.62098 40 1.17188 31.5509 1.17188 21.1282C1.17188 10.7059 9.88496 4.2981 20.3073 4.2981C30.73 4.2981 38.9151 12.8607 38.9151 23.2834Z"
                  fill="#DC3E22"/>
            <path d="M28.238 12.6066C27.3211 11.673 25.8377 10.8048 24.733 10.551C25.3401 10.0127 25.4623 9.99494 26.2227 9.61816C28.1713 8.65365 31.0576 8.56485 31.0576 8.56485C31.0576 8.56485 27.6509 6.8042 25.1601 6.91468C24.5259 6.94257 23.8571 7.16658 23.2118 7.48403C23.5757 6.97054 23.9205 6.45998 24.1409 6.07643C24.8152 4.90368 25.524 3.42627 25.524 3.42627C25.524 3.42627 22.9122 3.56573 21.7008 5.01565C21.2407 5.56645 20.8934 6.26625 20.6392 6.92275C20.1878 6.40419 19.6896 5.94242 19.1913 5.58195C16.6999 3.77896 12.7192 4.16903 12.7192 4.16903C12.7192 4.16903 15.7263 5.87486 17.0793 7.57656C17.6076 8.2411 18.1437 8.54842 18.4642 9.29352C17.3564 9.05367 14.8569 9.13565 13.63 9.59057C10.4771 10.7599 9.11852 15.4649 9.11852 15.4649C9.11852 15.4649 12.1952 13.3443 16.3813 11.8565C17.3017 11.5295 18.2748 11.4429 19.1229 11.4578C18.7379 12.0575 18.3173 12.8363 17.999 13.7546C17.2247 15.9904 18.2479 21.3113 18.2479 21.3113C18.2479 21.3113 20.4896 18.1647 21.403 15.6157C21.8718 14.3073 21.9879 12.9936 21.9904 12.0242C22.8217 12.3931 23.8009 12.9319 24.5326 13.398C28.2794 15.7852 30.072 20.1435 30.072 20.1435C30.072 20.1435 30.5941 15.006 28.238 12.6066Z"
                  fill="#899441"/>
            <path d="M20.5008 10.3094C20.4889 10.3094 20.477 10.3091 20.4651 10.3088C19.7242 10.2896 19.1391 9.67376 19.1572 8.9334C19.1587 8.86931 19.2234 4.36125 16.7191 2.40111C16.135 1.94395 16.0318 1.09984 16.489 0.515424C16.9465 -0.0686834 17.7906 -0.171833 18.3747 0.285626C21.9559 3.08806 21.8491 8.76128 21.843 9.00145C21.8238 9.73083 21.2262 10.3094 20.5008 10.3094Z"
                  fill="#A8B64F"/>
        </g>
        <defs>
            <clipPath id="clip0">
                <rect width="40" height="40" fill="white"/>
            </clipPath>
        </defs>
    </symbol>
    <symbol id="icon-equal" viewBox="0 0 24 24">
        <path d="M10 20H14V4H10V20ZM4 20H8V12H4V20ZM16 9V20H20V9H16Z" fill="#DC3E22"/>
    </symbol>
    <symbol id="icon-hide" viewBox="0 0 14 14">
        <path d="M7 0C3.136 0 0 3.136 0 7C0 10.864 3.136 14 7 14C10.864 14 14 10.864 14 7C14 3.136 10.864 0 7 0ZM7 12.6C3.906 12.6 1.4 10.094 1.4 7C1.4 5.705 1.841 4.515 2.583 3.57L10.43 11.417C9.485 12.159 8.295 12.6 7 12.6ZM11.417 10.43L3.57 2.583C4.515 1.841 5.705 1.4 7 1.4C10.094 1.4 12.6 3.906 12.6 7C12.6 8.295 12.159 9.485 11.417 10.43Z"
              fill="#999999"/>
    </symbol>
    <symbol id="icon-share" viewBox="0 0 12 14">
        <path d="M10 9.89558C9.49333 9.89558 9.04 10.1064 8.69333 10.4367L3.94 7.52008C3.97333 7.35843 4 7.19679 4 7.02811C4 6.85944 3.97333 6.69779 3.94 6.53614L8.64 3.64759C9 3.999 9.47333 4.21687 10 4.21687C11.1067 4.21687 12 3.2751 12 2.10843C12 0.941767 11.1067 0 10 0C8.89333 0 8 0.941767 8 2.10843C8 2.27711 8.02667 2.43875 8.06 2.6004L3.36 5.48896C3 5.13755 2.52667 4.91968 2 4.91968C0.893333 4.91968 0 5.86145 0 7.02811C0 8.19478 0.893333 9.13655 2 9.13655C2.52667 9.13655 3 8.91867 3.36 8.56727L8.10667 11.491C8.07333 11.6386 8.05333 11.7932 8.05333 11.9478C8.05333 13.0793 8.92667 14 10 14C11.0733 14 11.9467 13.0793 11.9467 11.9478C11.9467 10.8163 11.0733 9.89558 10 9.89558Z"
              fill="#999999"/>
    </symbol>
    <symbol id="icon-warning">
        <path d="M0 14H16L8 0L0 14ZM8.72727 11.7895H7.27273V10.3158H8.72727V11.7895ZM8.72727 8.8421H7.27273V5.89474H8.72727V8.8421Z"
              fill="#999999"/>
    </symbol>
    <symbol id="icon-up" viewBox="0 0 19 10">
        <path d="M9.5 0L0 10H19L9.5 0Z" fill="#D9D9D9"/>
    </symbol>
    <symbol id="icon-avatar" viewBox="0 0 50 50">
        <path d="M25 0C11.2 0 0 11.2 0 25C0 38.8 11.2 50 25 50C38.8 50 50 38.8 50 25C50 11.2 38.8 0 25 0ZM25 7.5C29.15 7.5 32.5 10.85 32.5 15C32.5 19.15 29.15 22.5 25 22.5C20.85 22.5 17.5 19.15 17.5 15C17.5 10.85 20.85 7.5 25 7.5ZM25 43C18.75 43 13.225 39.8 10 34.95C10.075 29.975 20 27.25 25 27.25C29.975 27.25 39.925 29.975 40 34.95C36.775 39.8 31.25 43 25 43Z"
              fill="#D9D9D9"/>
    </symbol>
    <symbol id="icon-plus" viewBox="0 0 18 18">
        <path d="M9.75 5.25H8.25V8.25H5.25V9.75H8.25V12.75H9.75V9.75H12.75V8.25H9.75V5.25ZM9 1.5C4.8675 1.5 1.5 4.8675 1.5 9C1.5 13.1325 4.8675 16.5 9 16.5C13.1325 16.5 16.5 13.1325 16.5 9C16.5 4.8675 13.1325 1.5 9 1.5ZM9 15C5.6925 15 3 12.3075 3 9C3 5.6925 5.6925 3 9 3C12.3075 3 15 5.6925 15 9C15 12.3075 12.3075 15 9 15Z"
              fill="#A8B64F"/>
    </symbol>
    <symbol id="icon-minus" viewBox="0 0 18 18">
        <path d="M9 1.5C4.8675 1.5 1.5 4.8675 1.5 9C1.5 13.1325 4.8675 16.5 9 16.5C13.1325 16.5 16.5 13.1325 16.5 9C16.5 4.8675 13.1325 1.5 9 1.5ZM9 15C5.6925 15 3 12.3075 3 9C3 5.6925 5.6925 3 9 3C12.3075 3 15 5.6925 15 9C15 12.3075 12.3075 15 9 15Z"
              fill="#C4C4C4"/>
        <path d="M5.25 8.25H8.25H9.75H12.75V9.75H9.75H8.25H5.25V8.25Z" fill="#C4C4C4"/>
    </symbol>
    <symbol id="icon-edit" viewBox="0 0 18 18">
        <path d="M10.545 6.765L11.235 7.455L4.44 14.25H3.75V13.56L10.545 6.765ZM13.245 2.25C13.0575 2.25 12.8625 2.325 12.72 2.4675L11.3475 3.84L14.16 6.6525L15.5325 5.28C15.825 4.9875 15.825 4.515 15.5325 4.2225L13.7775 2.4675C13.6275 2.3175 13.44 2.25 13.245 2.25ZM10.545 4.6425L2.25 12.9375V15.75H5.0625L13.3575 7.455L10.545 4.6425Z"
              fill="#A8B64F"/>
    </symbol>
    <symbol id="icon-remove" viewBox="0 0 18 18">
        <path d="M12 6.75V14.25H6V6.75H12ZM10.875 2.25H7.125L6.375 3H3.75V4.5H14.25V3H11.625L10.875 2.25ZM13.5 5.25H4.5V14.25C4.5 15.075 5.175 15.75 6 15.75H12C12.825 15.75 13.5 15.075 13.5 14.25V5.25Z"
              fill="#A8B64F"/>
    </symbol>
    <symbol id="icon-menu" viewBox="0 0 26 6">
        <circle cx="3" cy="3" r="3" fill="#C4C4C4"/>
        <circle cx="13" cy="3" r="3" fill="#C4C4C4"/>
        <circle cx="23" cy="3" r="3" fill="#C4C4C4"/>
    </symbol>
</svg>